<svg xmlns="http://www.w3.org/2000/svg" height="434.68" width="653.68" xml:space="preserve"><path style="fill:#58a1db;fill-opacity:1;fill-rule:nonzero;stroke:none" d="M6.613 516.992c3.914 3.918 8.817 5.879 14.684 5.879h429.609c48.949 0 87.141-12.25 114.563-36.723 27.414-24.476 41.125-61.929 41.125-112.347 0-20.571-2.699-39.66-8.078-57.289-5.391-17.621-17.149-32.071-35.254-43.332-1.961-1.961-1.719-3.668.73-5.129 21.047-12.742 34.758-29.129 41.137-49.199 6.348-20.09 9.539-41.872 9.539-65.36 0-48.972-13.582-86.422-40.75-112.37C546.738 15.18 508.672 2.21 459.719 2.21H21.297c-5.39 0-10.281 2.187-14.684 6.61C2.207 12.241 0 17.37 0 24.237v67.563c0 5.879 2.207 10.758 6.613 14.679 3.418 4.411 8.317 6.622 14.684 6.622h434.016c27.414 0 41.125 13.449 41.125 40.39 0 22.996-4.043 38.906-12.122 47.727-8.078 8.812-23.625 13.211-46.628 13.211H142.473c-6.368 0-11.274 2.211-14.692 6.609-4.402 4.41-6.609 9.301-6.609 14.691v66.829c0 5.382 2.207 10.402 6.609 15.062 4.407 4.649 9.297 6.969 14.692 6.969h295.215c12.722 0 22.148 1.101 28.269 3.308 6.121 2.204 10.398 4.524 12.852 6.973 3.418 2.938 5.754 7.348 6.984 13.231 1.211 5.859 1.836 14.429 1.836 25.699 0 7.82-.859 14.058-2.578 18.719-1.723 4.652-3.789 8.449-6.242 11.39-2.942 2.442-6.856 4.641-11.746 6.61-4.907 1.941-11.504 2.929-19.829 2.929H21.297c-6.367 0-11.266 2.199-14.684 6.61C2.207 423.48 0 428.379 0 434.75v66.82c0 6.36 2.207 11.512 6.613 15.422M696.184 29.371c0 2.938.601 5.629 1.836 8.078 1.21 2.45 2.312 4.89 3.296 7.34l294.485 453.109c.976 1.954 2.683 4.293 5.139 6.981 2.45 2.691 5.62 5.262 9.55 7.711 4.4 2.941 9.54 4.402 15.42 4.402h70.5c6.85 0 12.85-1.832 17.99-5.504 5.14-3.668 9.42-8.437 12.86-14.316L1421 44.059c2.45-3.918 4.16-8.809 5.14-14.688 0-9.3-3.92-16.883-11.76-22.762-6.36-2.449-11.5-3.668-15.42-3.668h-75.63c-5.88 0-10.78 1.22-14.69 3.668-4.4 2.442-7.84 5.25-10.28 8.45-2.45 3.172-4.17 5.742-5.14 7.703L1277.79 47l-24.96 37.45-188.74 292.28c-1.95 1.95-3.91 1.95-5.87 0L940.723 195.34 870.227 84.45l-40.391-61.688c-1.477-2.453-3.43-5.133-5.883-8.07-2.449-2.942-5.633-5.641-9.539-8.083-8.328-2.449-13.476-3.668-15.43-3.668h-75.632c-3.926 0-9.067 1.22-15.422 3.668-7.84 5.88-11.746 13.461-11.746 22.762" transform="matrix(.13333 0 0 -.13333 0 434.68)"/><path style="fill:#27479b;fill-opacity:1;fill-rule:nonzero;stroke:none" d="M2020.23 519.199c93.51 0 140.27-47.258 140.27-141.73v-29.367c0-3.442-.5-7.11-1.48-11.02-.98-3.934-3.18-7.34-6.6-10.281-2.94-3.43-6.13-5.641-9.55-6.61-3.43-.992-7.1-1.472-11.01-1.472h-64.62c-8.33 0-15.19 2.812-20.57 8.441-5.39 5.621-8.08 12.61-8.08 20.942v22.757c0 9.301-.73 16.02-2.2 20.192-1.47 4.148-3.19 7.219-5.14 9.179-1.47 1.961-4.3 3.551-8.45 4.782-4.17 1.207-10.64 1.84-19.46 1.84h-329.73c-9.3 0-16.52-.872-21.67-2.582-5.13-1.719-8.93-3.801-11.37-6.239-5.39-3.929-8.08-12.98-8.08-27.172V149.082c0-14.211 2.69-23.262 8.08-27.184 2.44-2.449 6.24-4.648 11.37-6.609 5.15-1.949 12.37-2.93 21.67-2.93h329.73c14.2 0 23.61 2.2 28.27 6.602 4.65 4.418 6.98 13.711 6.98 27.91v8.809c0 3.429.61 6.992 1.84 10.66 1.21 3.672 3.3 7.211 6.24 10.64 6.85 5.379 13.7 8.079 20.57 8.079h64.62c8.8 0 15.79-2.817 20.92-8.438 5.15-5.629 7.72-12.621 7.72-20.941v-15.418c0-46.024-11.88-80.903-35.62-104.653C2101.12 11.86 2066.25 0 2020.23 0h-364.98c-46.02 0-81.64 11.75-106.85 35.25-25.22 23.5-37.81 58.988-37.81 106.488v235.731c0 47.48 12.22 82.98 36.7 106.48 24.49 23.5 60.46 35.25 107.96 35.25h364.98M2344.82 488.359c0 8.321 2.69 15.172 8.08 20.563 5.38 5.379 12.23 8.07 20.56 8.07h64.63c3.41 0 6.97-.492 10.64-1.461 3.67-.98 6.98-3.172 9.92-6.582 3.42-3.41 5.62-6.957 6.6-10.609.98-3.66 1.48-6.949 1.48-9.879V316.512h379.67v171.949c0 8.289 2.67 15.109 8.02 20.488 5.36 5.371 12.17 8.043 20.44 8.043h64.24c3.41 0 6.94-.613 10.59-1.832 3.65-1.219 7.17-3.301 10.57-6.238 5.36-6.863 8.04-13.723 8.04-20.563V31.582c0-8.82-2.8-15.793-8.4-20.934-5.6-5.136-12.53-7.707-20.8-7.707h-64.24c-8.27 0-15.08 2.68-20.44 8.078-5.35 5.38-8.02 12.231-8.02 20.563V204.16h-379.67V31.582c0-2.941-.5-6.242-1.48-9.91-.98-3.672-3.18-7.242-6.6-10.653-2.94-3.43-6.25-5.64-9.92-6.62-3.67-.977-7.23-1.458-10.64-1.458h-64.63c-8.33 0-15.18 2.68-20.56 8.078-5.39 5.38-8.08 12.231-8.08 20.563v456.777M3071.11 29.371c0 2.938.61 5.629 1.84 8.078 1.21 2.45 2.31 4.89 3.3 7.34l294.48 453.109c.98 1.954 2.69 4.293 5.14 6.981 2.45 2.691 5.62 5.262 9.55 7.711 4.4 2.941 9.54 4.402 15.42 4.402h70.5c6.85 0 12.85-1.832 18-5.504 5.13-3.668 9.41-8.437 12.85-14.316l293.74-453.113c2.45-3.918 4.16-8.809 5.14-14.688 0-9.3-3.92-16.883-11.75-22.762-6.37-2.449-11.51-3.668-15.42-3.668h-75.64c-5.88 0-10.78 1.22-14.69 3.668-4.4 2.442-7.84 5.25-10.28 8.45-2.45 3.172-4.17 5.742-5.14 7.703L3652.72 47l-24.96 37.45-188.74 292.28c-1.95 1.95-3.91 1.95-5.87 0l-117.5-181.39-70.49-110.89-40.39-61.688c-1.48-2.453-3.43-5.133-5.88-8.07-2.45-2.942-5.64-5.641-9.54-8.083-8.33-2.449-13.48-3.668-15.43-3.668h-75.64c-3.92 0-9.06 1.22-15.42 3.668-7.84 5.88-11.75 13.461-11.75 22.762M3993.47 516.992c3.41 0 6.97-.492 10.64-1.461 3.67-.992 6.98-3.199 9.92-6.609 3.42-3.434 5.62-6.981 6.6-10.652.98-3.668 1.48-6.969 1.48-9.911V31.582c0-2.941-.5-6.242-1.48-9.91-.98-3.672-3.18-7.242-6.6-10.653-2.94-3.43-6.25-5.64-9.92-6.62-3.67-.977-7.23-1.458-10.64-1.458h-64.63c-8.33 0-15.18 2.68-20.56 8.078-5.39 5.38-8.07 12.231-8.07 20.563v456.777c0 8.321 2.68 15.172 8.07 20.563 5.38 5.379 12.23 8.07 20.56 8.07h64.63M4381.93 516.992c6.86 0 12.24-1.351 16.17-4.031 3.9-2.699 7.09-5.262 9.54-7.723.49 0 .97-.25 1.47-.726L4780.7 155.68v332.679c0 8.321 2.67 15.172 8.03 20.563 5.35 5.379 12.17 8.07 20.44 8.07h64.23c8.27 0 15.2-2.691 20.81-8.07 5.59-5.391 8.4-12.242 8.4-20.563V31.582c0-3.441-.5-6.98-1.48-10.652-.98-3.668-3.17-6.98-6.59-9.91-2.94-3.43-6.36-5.641-10.27-6.622-3.92-.976-7.57-1.457-11-1.457h-79.93c-6.85 0-12.23 1.34-16.13 4.04-3.91 2.69-7.09 5.011-9.53 6.968l-1.47 1.473-371.79 348.828V31.582c0-2.941-.49-6.242-1.47-9.91-.99-3.672-3.18-7.242-6.6-10.653-2.94-3.43-6.25-5.64-9.92-6.62-3.68-.977-7.23-1.458-10.65-1.458h-64.63c-8.33 0-15.17 2.68-20.55 8.078-5.39 5.38-8.08 12.231-8.08 20.563v456.777c0 8.321 2.69 15.172 8.08 20.563 5.38 5.379 12.22 8.07 20.55 8.07h80.78M2867.62 1548.33l-452.81 784.28v698.19l1055.82-1828.72zm-939.61-65.83h893.61l607.95-349.1H1320.06zm406.8 850.1-452.77-784.25-603.05-346.27L2334.81 3030.8zm80-524.25v364.25l314.6-544.9zm-39.99-69.28 307.48-176.57h-614.98zm-40.01 69.28-314.6-180.65 314.6 544.9zm40 1451.73L1100.78 1053.4h2548.07L2374.81 3260.08" transform="matrix(.13333 0 0 -.13333 0 434.68)"/></svg>